<svg xmlns="http://www.w3.org/2000/svg" width="224" height="25.517" viewBox="0 0 224 25.517">
  <g id="그룹_1650" data-name="그룹 1650" transform="translate(-1809.494 -731.22)">
    <g id="그룹_1648" data-name="그룹 1648" transform="translate(1809.494 731.22)">
      <g id="그룹_1647" data-name="그룹 1647" transform="translate(26.358)">
        <path id="패스_671" data-name="패스 671" d="M1852.639,731.22a12.759,12.759,0,1,0,12.764,12.753A12.758,12.758,0,0,0,1852.639,731.22Zm.011,23.554a10.8,10.8,0,1,1,10.789-10.8A10.8,10.8,0,0,1,1852.65,754.774Z" transform="translate(-1839.885 -731.22)" fill="#fff"/>
        <path id="패스_672" data-name="패스 672" d="M1861.69,744.795a.979.979,0,0,0-.8.416h0a1.735,1.735,0,0,1-.67.567,1.717,1.717,0,0,1-2.14-.564h0a.982.982,0,0,0-1.622,1.107l.015.02,0,.005a3.679,3.679,0,0,0,6.017,0h0c.006-.007.011-.016.017-.022a.982.982,0,0,0-.819-1.525Z" transform="translate(-1842.062 -733.021)" fill="#fff"/>
      </g>
      <path id="패스_673" data-name="패스 673" d="M1811.362,735.786q1.409,0,1.409.685l.009,16.03q0,.712-1.471.712h-.43q-1.378,0-1.379-.63l-.007-16.167q0-.63,1.44-.631Z" transform="translate(-1809.494 -731.826)" fill="#fff"/>
      <path id="패스_674" data-name="패스 674" d="M1826.224,753.49a2.2,2.2,0,0,1-1.583-.63,6.179,6.179,0,0,1-1.15-1.561q-.714-1.423-1.6-3.287t-1.724-3.807q-.84-1.945-1.586-3.795t-1.182-3.246a.679.679,0,0,1,.357-.891,6.393,6.393,0,0,1,1.2-.48,2.818,2.818,0,0,1,.9-.151c.25.01.457.224.623.644q.745,1.834,1.475,3.6t1.509,3.547q.775,1.781,1.6,3.6t1.756,3.768q.773-1.67,1.629-3.577t1.645-3.768q.791-1.863,1.473-3.548t1.148-2.974a1.015,1.015,0,0,1,1.4-.741,1.525,1.525,0,0,1,.6.343q.2.205.016.754-.495,1.535-1.161,3.316t-1.458,3.618q-.791,1.837-1.629,3.631t-1.675,3.357q-.218.41-.48.822a5.149,5.149,0,0,1-.574.74,2.561,2.561,0,0,1-.683.521A1.8,1.8,0,0,1,1826.224,753.49Z" transform="translate(-1810.537 -731.807)" fill="#fff"/>
      <path id="패스_675" data-name="패스 675" d="M1876.607,735.841a15.91,15.91,0,0,1,3.368.328,7.388,7.388,0,0,1,2.557,1.026,4.8,4.8,0,0,1,1.613,1.794,5.669,5.669,0,0,1,.57,2.63,6.7,6.7,0,0,1-.722,3.329,5.133,5.133,0,0,1-1.909,1.96l2.713,5.068c.2.366-.069.768-.826,1.206-.087.054-.19.119-.309.192a2.22,2.22,0,0,1-.374.179.677.677,0,0,1-.375.028.5.5,0,0,1-.31-.261l-2.97-5.588a9.967,9.967,0,0,1-1.82.111,16.115,16.115,0,0,1-1.873-.164l0,5.261a.6.6,0,0,1-.232.507,1.413,1.413,0,0,1-.826.178h-.594c-.791,0-1.188-.209-1.188-.629L1873.1,736.8a.858.858,0,0,1,.3-.754,1.576,1.576,0,0,1,.891-.206Zm-.743,10.357a11.447,11.447,0,0,0,3.395-.4,4.294,4.294,0,0,0,1.832-1.042,2.721,2.721,0,0,0,.734-1.453,10.4,10.4,0,0,0,.129-1.657,5.387,5.387,0,0,0-.362-2.123,2.96,2.96,0,0,0-1.112-1.328,4.866,4.866,0,0,0-1.9-.684,16.73,16.73,0,0,0-2.723-.191Z" transform="translate(-1817.934 -731.833)" fill="#fff"/>
      <path id="패스_676" data-name="패스 676" d="M1892.072,741.629a8.237,8.237,0,0,0,.652,3.753,2.515,2.515,0,0,0,2.437,1.2,3.579,3.579,0,0,0,1.762-.37,2.442,2.442,0,0,0,.988-1.028,4.456,4.456,0,0,0,.436-1.562,19.55,19.55,0,0,0,.094-2l0-5.506q0-.6,1.159-.6h.362q1.06,0,1.061.63l0,5.59a15.244,15.244,0,0,1-.167,2.4,4.831,4.831,0,0,1-.651,1.823,3.514,3.514,0,0,1-1.363,1.234,6.639,6.639,0,0,1-2.328.631l0,4.932q0,.712-1.159.712h-.338q-1.085,0-1.086-.63l0-4.986a4.641,4.641,0,0,1-3.3-1.7,7.1,7.1,0,0,1-1.136-4.411l0-5.507a.617.617,0,0,1,.266-.506,1.339,1.339,0,0,1,.82-.207h.338a1.434,1.434,0,0,1,.856.219.633.633,0,0,1,.3.52Z" transform="translate(-1820.108 -731.79)" fill="#fff"/>
    </g>
    <g id="그룹_1649" data-name="그룹 1649" transform="translate(1897.115 734.843)">
      <path id="패스_677" data-name="패스 677" d="M1922.775,752.657a6.26,6.26,0,0,1-1.014.393,10.812,10.812,0,0,1-1.182.28q-.62.113-1.225.168t-1.141.056a9.272,9.272,0,0,1-3.07-.546,6.282,6.282,0,0,1-2.438-1.612,7.553,7.553,0,0,1-1.606-2.789,12.726,12.726,0,0,1-.577-4.078,11.947,11.947,0,0,1,.478-3.447,7.72,7.72,0,0,1,1.466-2.776,6.755,6.755,0,0,1,2.536-1.849,9.223,9.223,0,0,1,3.691-.673,5.415,5.415,0,0,1,1.986.337,5.277,5.277,0,0,1,1.438.813,4.453,4.453,0,0,1,.915,1,3.039,3.039,0,0,1,.423.854c.019.094.042.206.071.337a2.9,2.9,0,0,1,.056.407.84.84,0,0,1-.056.378.485.485,0,0,1-.241.251.641.641,0,0,1-.492-.028q-.268-.112-.55-.756a5.5,5.5,0,0,0-.394-.645,3.234,3.234,0,0,0-.663-.687,3.547,3.547,0,0,0-.986-.532,3.993,3.993,0,0,0-1.366-.211,4.721,4.721,0,0,0-2.212.5,4.962,4.962,0,0,0-1.677,1.429,6.5,6.5,0,0,0-1.07,2.243,10.841,10.841,0,0,0-.367,2.915,14.643,14.643,0,0,0,.436,3.952,5.569,5.569,0,0,0,1.211,2.326,3.856,3.856,0,0,0,1.832,1.093,8.913,8.913,0,0,0,2.3.28,10.856,10.856,0,0,0,1.48-.1,13.122,13.122,0,0,0,1.395-.266c.056-.018.174-.06.352-.126l.55-.2a3.47,3.47,0,0,1,.507-.14c.149-.028.244-.014.281.042a.713.713,0,0,1-.127.714A2.3,2.3,0,0,1,1922.775,752.657Z" transform="translate(-1910.52 -735.448)" fill="#fff"/>
      <path id="패스_678" data-name="패스 678" d="M1934.042,735.752a5.577,5.577,0,0,1,3,.8,6.849,6.849,0,0,1,2.158,2.13,10.18,10.18,0,0,1,1.3,3.055,14.418,14.418,0,0,1,.44,3.574,12.886,12.886,0,0,1-.346,2.958,7.2,7.2,0,0,1-1.211,2.648,6.407,6.407,0,0,1-2.291,1.907,7.831,7.831,0,0,1-3.582.728,5.017,5.017,0,0,1-2.651-.7A6.408,6.408,0,0,1,1928.9,751a8.61,8.61,0,0,1-1.212-2.635,11.341,11.341,0,0,1-.413-3.056,19.09,19.09,0,0,1,.307-3.405,9.7,9.7,0,0,1,1.078-3.069,6.341,6.341,0,0,1,2.078-2.229A5.909,5.909,0,0,1,1934.042,735.752Zm-.027,16.312a2.921,2.921,0,0,0,2-.7,4.84,4.84,0,0,0,1.251-1.752,9.255,9.255,0,0,0,.638-2.243,14.088,14.088,0,0,0,.187-2.172,15.248,15.248,0,0,0-.266-2.817,11.558,11.558,0,0,0-.773-2.551,5.781,5.781,0,0,0-1.252-1.85,2.4,2.4,0,0,0-1.7-.715,2.9,2.9,0,0,0-1.972.672,4.656,4.656,0,0,0-1.225,1.781,9.835,9.835,0,0,0-.626,2.536,24.7,24.7,0,0,0-.173,2.944,12.594,12.594,0,0,0,.226,2.326,9.349,9.349,0,0,0,.693,2.214,4.962,4.962,0,0,0,1.212,1.669A2.6,2.6,0,0,0,1934.015,752.064Z" transform="translate(-1912.744 -735.444)" fill="#fff"/>
      <path id="패스_679" data-name="패스 679" d="M1947.489,735.59a1.624,1.624,0,0,1,.8.154,1.227,1.227,0,0,1,.427.406l4.5,6.924a1.849,1.849,0,0,0,.865.827q.413.126.946-.687l4.555-7.372a.477.477,0,0,1,.266-.167,1.794,1.794,0,0,1,.386-.071c.133-.009.266-.014.4-.014h.679a1.361,1.361,0,0,1,.891.238.7.7,0,0,1,.28.546v16.341q0,.73-1.225.729h-.4q-1.146,0-1.146-.673V738.589l-4.235,6.867q-.852,1.374-1.731,1.374a1.725,1.725,0,0,1-.972-.364,4.337,4.337,0,0,1-1.053-1.178l-3.036-4.54v11.968q0,.73-1.251.729h-.373q-1.147,0-1.146-.673V736.347a.656.656,0,0,1,.293-.532,1.49,1.49,0,0,1,.906-.225Z" transform="translate(-1915.217 -735.423)" fill="#fff"/>
      <path id="패스_680" data-name="패스 680" d="M1970.181,735.59a1.629,1.629,0,0,1,.8.154,1.23,1.23,0,0,1,.426.406l4.5,6.924a1.847,1.847,0,0,0,.866.827q.413.126.945-.687l4.554-7.372a.481.481,0,0,1,.266-.167,1.8,1.8,0,0,1,.386-.071c.133-.009.267-.014.4-.014H1984a1.364,1.364,0,0,1,.892.238.7.7,0,0,1,.279.546v16.341q0,.73-1.224.729h-.4q-1.146,0-1.145-.673V738.589l-4.235,6.867q-.852,1.374-1.731,1.374a1.718,1.718,0,0,1-.971-.364,4.3,4.3,0,0,1-1.053-1.178l-3.035-4.54v11.968q0,.73-1.253.729h-.372q-1.146,0-1.146-.673V736.347a.658.658,0,0,1,.293-.532,1.493,1.493,0,0,1,.906-.225Z" transform="translate(-1918.228 -735.423)" fill="#fff"/>
      <path id="패스_681" data-name="패스 681" d="M1994.184,747.119a7.893,7.893,0,0,0,.719,3.84,2.845,2.845,0,0,0,2.69,1.233,4.2,4.2,0,0,0,1.944-.379,2.6,2.6,0,0,0,1.092-1.051,4.288,4.288,0,0,0,.48-1.6,18.134,18.134,0,0,0,.107-2.046V736.272c0-.41.425-.618,1.277-.618h.4q1.171,0,1.172.645v10.931a13.575,13.575,0,0,1-.24,2.69,4.179,4.179,0,0,1-.945,1.977,4.421,4.421,0,0,1-2.011,1.219,11.617,11.617,0,0,1-3.462.42,6.341,6.341,0,0,1-4.5-1.471q-1.571-1.473-1.572-4.835V736.383a.621.621,0,0,1,.293-.519,1.558,1.558,0,0,1,.905-.211h.373a1.687,1.687,0,0,1,.945.225.644.644,0,0,1,.334.532Z" transform="translate(-1921.243 -735.431)" fill="#fff"/>
      <path id="패스_682" data-name="패스 682" d="M2021.2,735.72a1.426,1.426,0,0,1,.891.224.665.665,0,0,1,.28.533v16.033a.772.772,0,0,1-.293.63,1.475,1.475,0,0,1-.932.239h-.4a1.021,1.021,0,0,1-.745-.239,2.743,2.743,0,0,1-.48-.716l-7.057-12.361v12.585q0,.73-1.252.729h-.372q-1.146,0-1.147-.673V736.56q0-.841,1.2-.841h.374a1.8,1.8,0,0,1,1,.224,1.557,1.557,0,0,1,.52.588l6.818,12.81V736.337q0-.617,1.2-.617Z" transform="translate(-1923.68 -735.44)" fill="#fff"/>
      <path id="패스_683" data-name="패스 683" d="M2030.514,735.59q1.225,0,1.225.7v16.4q0,.728-1.278.729h-.372q-1.2,0-1.2-.645V736.234q0-.644,1.251-.644Z" transform="translate(-1926.227 -735.423)" fill="#fff"/>
      <path id="패스_684" data-name="패스 684" d="M2047.314,737.352q-1.091.083-2.157.126t-2.185.1V752.74q0,.73-1.278.729h-.373q-1.2,0-1.2-.644V737.577q-2.236,0-4.554-.169a1.535,1.535,0,0,1-.812-.28.643.643,0,0,1-.28-.5.8.8,0,0,1,.24-.561.833.833,0,0,1,.693-.224q1.171.083,2.689.112t3.13.014q1.61-.014,3.195-.056t2.89-.127a1.275,1.275,0,0,1,.88.182.733.733,0,0,1,.345.631.621.621,0,0,1-.28.476A1.78,1.78,0,0,1,2047.314,737.352Z" transform="translate(-1926.968 -735.447)" fill="#fff"/>
      <path id="패스_685" data-name="패스 685" d="M2055.936,741.647a7.883,7.883,0,0,0,.719,3.84,2.844,2.844,0,0,0,2.689,1.234,4.206,4.206,0,0,0,1.945-.378,2.6,2.6,0,0,0,1.092-1.051,4.3,4.3,0,0,0,.479-1.6,17.788,17.788,0,0,0,.108-2.046v-5.634q0-.616,1.277-.616h.4q1.173,0,1.172.644v5.717a14.528,14.528,0,0,1-.187,2.453,4.686,4.686,0,0,1-.719,1.864,3.778,3.778,0,0,1-1.5,1.262,7.785,7.785,0,0,1-2.57.644v5.046q0,.727-1.278.729h-.374q-1.2,0-1.2-.645v-5.1a5.269,5.269,0,0,1-3.649-1.739,6.876,6.876,0,0,1-1.251-4.513v-5.634a.619.619,0,0,1,.293-.518,1.556,1.556,0,0,1,.905-.21h.372a1.689,1.689,0,0,1,.946.223.644.644,0,0,1,.334.533Z" transform="translate(-1929.438 -735.397)" fill="#fff"/>
    </g>
  </g>
</svg>
